<svg id="Livello_11" data-name="Livello 11" xmlns="http://www.w3.org/2000/svg"
    xmlns:xlink="http://www.w3.org/1999/xlink" viewBox="0 0 55 55">
    <defs>
        <style>
            .cls-1{fill:url(#Sfumatura_senza_nome_216);}.cls-2{fill:url(#Sfumatura_senza_nome_216-2);}.cls-3{fill:url(#Sfumatura_senza_nome_216-3);}.cls-4{fill:url(#Sfumatura_senza_nome_185);}.cls-5{fill:url(#Sfumatura_senza_nome_185-2);}.cls-6{fill:url(#Sfumatura_senza_nome_9);}.cls-7{fill:url(#Sfumatura_senza_nome_9-2);}.cls-8{fill:url(#Sfumatura_senza_nome_9-3);}.cls-9{fill:url(#Sfumatura_senza_nome_9-4);}.cls-10{fill:url(#Sfumatura_senza_nome_9-5);}.cls-11{fill:url(#Sfumatura_senza_nome_173);}.cls-12{fill:url(#Sfumatura_senza_nome_173-2);}.cls-13{fill:url(#Sfumatura_senza_nome_9-6);}
        </style>
        <linearGradient id="Sfumatura_senza_nome_216" x1="48.50456" y1="58.43123" x2="33.87752"
            y2="42.83733" gradientUnits="userSpaceOnUse">
            <stop offset="0" stop-color="#242422" stop-opacity="0.2" />
            <stop offset="0" stop-opacity="0.2" />
            <stop offset="1" stop-opacity="0.1" />
        </linearGradient>
        <linearGradient id="Sfumatura_senza_nome_216-2" x1="58.08336" y1="49.05258" x2="43.24332"
            y2="33.23161" xlink:href="#Sfumatura_senza_nome_216" />
        <linearGradient id="Sfumatura_senza_nome_216-3" x1="56.76854" y1="34.18267" x2="41.9077"
            y2="18.33953" xlink:href="#Sfumatura_senza_nome_216" />
        <linearGradient id="Sfumatura_senza_nome_185" x1="56.51827" y1="34.31512" x2="32.4924"
            y2="8.70113" gradientUnits="userSpaceOnUse">
            <stop offset="0" stop-opacity="0.2" />
            <stop offset="1" stop-opacity="0.1" />
        </linearGradient>
        <linearGradient id="Sfumatura_senza_nome_185-2" x1="11.20935" y1="31.87924" x2="55"
            y2="31.87924" xlink:href="#Sfumatura_senza_nome_185" />
        <linearGradient id="Sfumatura_senza_nome_9" x1="36.56143" y1="46.1633" x2="32.07547"
            y2="41.38082" gradientUnits="userSpaceOnUse">
            <stop offset="0.00467" stop-color="#fff" />
            <stop offset="1" stop-color="#e0e0e0" />
        </linearGradient>
        <linearGradient id="Sfumatura_senza_nome_9-2" x1="46.28329" y1="36.75323" x2="41.47111"
            y2="31.62296" xlink:href="#Sfumatura_senza_nome_9" />
        <linearGradient id="Sfumatura_senza_nome_9-3" x1="47.86321" y1="25.06754" x2="39.89809"
            y2="16.57593" xlink:href="#Sfumatura_senza_nome_9" />
        <linearGradient id="Sfumatura_senza_nome_9-4" x1="38.25258" y1="15.36978" x2="30.49665"
            y2="7.10118" xlink:href="#Sfumatura_senza_nome_9" />
        <linearGradient id="Sfumatura_senza_nome_9-5" x1="35.08836" y1="41.61411" x2="8.8968"
            y2="13.69126" xlink:href="#Sfumatura_senza_nome_9" />
        <linearGradient id="Sfumatura_senza_nome_173" x1="25.42218" y1="37.49936" x2="55"
            y2="37.49936" xlink:href="#Sfumatura_senza_nome_185" />
        <linearGradient id="Sfumatura_senza_nome_173-2" x1="25.44708" y1="25.34494" x2="29.8056"
            y2="25.34494" xlink:href="#Sfumatura_senza_nome_185" />
        <linearGradient id="Sfumatura_senza_nome_9-6" x1="34.8836" y1="33.58764" x2="20.56293"
            y2="18.32036" xlink:href="#Sfumatura_senza_nome_9" />
    </defs>
    <path id="ombra_4" data-name="ombra 4" class="cls-1"
        d="M38.60248,41.43988a1.49625,1.49625,0,0,1,.40436,1.12109,1.33648,1.33648,0,0,1-.58112,1.017,18.92268,18.92268,0,0,1-3.41418,1.84021A20.07526,20.07526,0,0,1,31.30682,46.532a1.40814,1.40814,0,0,1-1.08734-.26349L38.95093,55H52.1626Z" />
    <path id="ombra_3" data-name="ombra 3" class="cls-2"
        d="M55,38.69873l-8.51129-8.51129a1.25758,1.25758,0,0,1,.16974.993,18.33194,18.33194,0,0,1-1.1623,3.77734,19.63809,19.63809,0,0,1-1.84027,3.34156,1.33623,1.33623,0,0,1-1.017.58111,1.47684,1.47684,0,0,1-1.06281-.35962L55,51.94476Z" />
    <path id="ombra_2" data-name="ombra 2" class="cls-3"
        d="M45.254,25.466a1.53967,1.53967,0,0,1-.96857-.339L55,35.84155V28.04468L43.65546,16.70013l.00042.00049a20.41652,20.41652,0,0,1,3.00257,7.11884,1.28563,1.28563,0,0,1-.26636,1.16229A1.41375,1.41375,0,0,1,45.254,25.466Z" />
    <path id="ombra_1" data-name="ombra 1" class="cls-4"
        d="M45.254,25.466a1.513,1.513,0,0,1-.73987-.21258L55,35.73926v-7.7301L38.79034,11.7995a1.39623,1.39623,0,0,1,.24073.63946,1.43212,1.43212,0,0,1-.41162,1.1623,1.26716,1.26716,0,0,1-.87171.43585,1.64241,1.64241,0,0,1-.96857-.19373,20.01576,20.01576,0,0,0-2.85723-1.47705,21.90537,21.90537,0,0,0-2.95411-.99279,1.37713,1.37713,0,0,1-.81317-.47962L43.89471,24.634a1.39673,1.39673,0,0,1-.142-.37866,20.433,20.433,0,0,0-.99274-3.0509,17.9672,17.9672,0,0,0-1.477-2.80884,1.359,1.359,0,0,1-.218-.96857,1.57045,1.57045,0,0,1,.46009-.9201,1.37157,1.37157,0,0,1,2.13079.19372,20.41652,20.41652,0,0,1,3.00257,7.11884,1.28563,1.28563,0,0,1-.26636,1.16229A1.41375,1.41375,0,0,1,45.254,25.466Z" />
    <path id="ombra_semic" data-name="ombra semic" class="cls-5"
        d="M55,38.69873l-8.51111-8.51111a1.25787,1.25787,0,0,1,.16956.99286,18.33194,18.33194,0,0,1-1.1623,3.77734,19.63809,19.63809,0,0,1-1.84027,3.34156,1.33623,1.33623,0,0,1-1.017.58111,1.51042,1.51042,0,0,1-1.16224-.43585,1.26675,1.26675,0,0,1-.43585-.8717,1.45832,1.45832,0,0,1,.24213-.96857A16.19181,16.19181,0,0,0,42.76,33.844a19.88433,19.88433,0,0,0,.99274-3.09936,1.3859,1.3859,0,0,1,.53271-.87171,1.54007,1.54007,0,0,1,.96857-.339,1.45828,1.45828,0,0,1,.81671.23559l-21.011-21.011a1.48669,1.48669,0,0,1-.72644,2.56665A16.12285,16.12285,0,0,0,14.91406,17.088,16.03515,16.03515,0,0,0,11.20935,27.5a16.035,16.035,0,0,0,3.70471,10.41193,16.12294,16.12294,0,0,0,9.41919,5.76294,1.42369,1.42369,0,0,1,.87171.50848,1.5058,1.5058,0,0,1-.14527,2.05817,1.25108,1.25108,0,0,1-1.16229.29052,18.9053,18.9053,0,0,1-9.55109-4.92743L27.7417,55H55ZM38.42572,43.578a18.92268,18.92268,0,0,1-3.41418,1.84021A20.07526,20.07526,0,0,1,31.30682,46.532a1.39721,1.39721,0,0,1-1.64654-1.45282,1.3515,1.3515,0,0,1,.339-.9201,1.47135,1.47135,0,0,1,.8717-.48425,18.25512,18.25512,0,0,0,3.02674-.9444,15.51206,15.51206,0,0,0,2.833-1.52545,1.45833,1.45833,0,0,1,.96857-.24213,1.26675,1.26675,0,0,1,.8717.43585,1.51046,1.51046,0,0,1,.43586,1.16223A1.33648,1.33648,0,0,1,38.42572,43.578Z" />
    <path id="quarto" class="cls-6"
        d="M31.30684,46.53209a1.39721,1.39721,0,0,1-1.64654-1.45283,1.35128,1.35128,0,0,1,.339-.92013,1.47166,1.47166,0,0,1,.8717-.48428,18.25285,18.25285,0,0,0,3.02673-.94434,15.51406,15.51406,0,0,0,2.833-1.52547,1.45833,1.45833,0,0,1,.96855-.24214,1.26686,1.26686,0,0,1,.8717.43585,1.51055,1.51055,0,0,1,.43585,1.16226,1.3363,1.3363,0,0,1-.58113,1.017,18.92414,18.92414,0,0,1-3.41415,1.84025A20.08313,20.08313,0,0,1,31.30684,46.53209Z" />
    <path id="terzo" class="cls-7"
        d="M41.47666,38.44466a1.26682,1.26682,0,0,1-.43585-.8717,1.45824,1.45824,0,0,1,.24214-.96855A16.1911,16.1911,0,0,0,42.76,33.844a19.8887,19.8887,0,0,0,.99277-3.09937,1.38581,1.38581,0,0,1,.5327-.8717,1.53979,1.53979,0,0,1,.96856-.339,1.4316,1.4316,0,0,1,1.11383.48428,1.25094,1.25094,0,0,1,.29057,1.16226,18.32989,18.32989,0,0,1-1.16227,3.77737,19.639,19.639,0,0,1-1.84025,3.34151,1.33633,1.33633,0,0,1-1.017.58113A1.5106,1.5106,0,0,1,41.47666,38.44466Z" />
    <path id="secondo" class="cls-8"
        d="M45.254,25.466a1.53979,1.53979,0,0,1-.96856-.339,1.38581,1.38581,0,0,1-.5327-.8717A20.4378,20.4378,0,0,0,42.76,21.2044a17.9656,17.9656,0,0,0-1.477-2.80881A1.35884,1.35884,0,0,1,41.065,17.427a1.57031,1.57031,0,0,1,.46006-.92013,1.3716,1.3716,0,0,1,2.13082.19371,21.36981,21.36981,0,0,1,1.84025,3.41416,21.15083,21.15083,0,0,1,1.16227,3.70472,1.2854,1.2854,0,0,1-.26635,1.16226A1.41365,1.41365,0,0,1,45.254,25.466Z" />
    <path id="primo" class="cls-9"
        d="M36.77917,13.84339a20.01381,20.01381,0,0,0-2.85724-1.47705,21.90249,21.90249,0,0,0-2.95408-.99276,1.38579,1.38579,0,0,1-.8717-.53271,1.53978,1.53978,0,0,1-.339-.96855,1.39118,1.39118,0,0,1,.46007-1.08963,1.2266,1.2266,0,0,1,1.138-.26635A22.83259,22.83259,0,0,1,34.98734,9.606a17.56048,17.56048,0,0,1,3.43837,1.816,1.4137,1.4137,0,0,1,.60535,1.017,1.43185,1.43185,0,0,1-.41164,1.16227,1.26683,1.26683,0,0,1-.8717.43585A1.64256,1.64256,0,0,1,36.77917,13.84339Z" />
    <path id="semicerchio" class="cls-10"
        d="M23.8974,46.53209a18.977,18.977,0,0,1-11.1868-6.65881A18.773,18.773,0,0,1,8.30368,27.5,18.773,18.773,0,0,1,12.7106,15.12672,18.977,18.977,0,0,1,23.8974,8.46791a1.251,1.251,0,0,1,1.16227.29057,1.4867,1.4867,0,0,1-.72642,2.56667A16.12285,16.12285,0,0,0,14.91406,17.088,16.035,16.035,0,0,0,11.20934,27.5a16.035,16.035,0,0,0,3.70472,10.412,16.1228,16.1228,0,0,0,9.41919,5.76289,1.42427,1.42427,0,0,1,.8717.50849,1.5058,1.5058,0,0,1-.14528,2.05818A1.251,1.251,0,0,1,23.8974,46.53209Z" />
    <path id="ombra_pin" data-name="ombra pin" class="cls-11"
        d="M55,41.34357,33.65515,19.99872a7.90812,7.90812,0,0,1,2.10706,5.70941,9.496,9.496,0,0,1-1.67078,4.9881,29.1502,29.1502,0,0,1-5.06067,5.76288,2.41487,2.41487,0,0,1-.65381.38745,2.012,2.012,0,0,1-1.50122,0,2.41411,2.41411,0,0,1-.65381-.38745c-.2846-.2602-.53332-.51136-.79974-.767L44.73,55H55Z" />
    <path id="ombra_buco" data-name="ombra buco" class="cls-12"
        d="M26.07666,23.79529a2.13015,2.13015,0,0,0-.62958,1.52545,2.16505,2.16505,0,0,0,.62958,1.59808,2.222,2.222,0,0,0,3.09937,0,2.16532,2.16532,0,0,0,.62957-1.59808,2.13043,2.13043,0,0,0-.62957-1.52545,2.16347,2.16347,0,0,0-3.09937,0Z" />
    <path id="pin" class="cls-13"
        d="M33.29236,19.63049a8.25419,8.25419,0,0,0-11.33209,0,7.81942,7.81942,0,0,0-2.46979,6.07764,9.496,9.496,0,0,0,1.67077,4.9881,29.15086,29.15086,0,0,0,5.06067,5.76288,2.41411,2.41411,0,0,0,.65381.38745,2.012,2.012,0,0,0,1.50122,0,2.41487,2.41487,0,0,0,.65381-.38745,29.1502,29.1502,0,0,0,5.06067-5.76288,9.496,9.496,0,0,0,1.67078-4.9881A7.8193,7.8193,0,0,0,33.29236,19.63049ZM29.176,26.91882a2.222,2.222,0,0,1-3.09937,0,2.16505,2.16505,0,0,1-.62958-1.59808,2.13015,2.13015,0,0,1,.62958-1.52545,2.16347,2.16347,0,0,1,3.09937,0,2.13043,2.13043,0,0,1,.62957,1.52545A2.16532,2.16532,0,0,1,29.176,26.91882Z" />
</svg>